# xmcd CD database file
#
# Track frame offsets:
#	180
#	12275
#	27350
#	42466
#	55717
#	70424
#	81704
#	96550
#	127028
#	151958
#	165429
#	176803
#	189006
#	201828
#	215677
#	227788
#	242616
#	254848
#	269302
#	280551
#
# Disc length: 3920 seconds
#
# Revision: 0
# Processed by: cddbd v1.5.2PL0 Copyright (c) Steve Scherf et al.
# Submitted via: CDex 1.51
#
DISCID=260f4e14
DTITLE=Jazz - Jazz
DYEAR=2005
DGENRE=Jazz
TTITLE0=Django Reinhardt - Japanese sandman
TTITLE1=Artie Shaw - Confession (that I love you)
TTITLE2=Artie Shaw - Just kiddin' around
TTITLE3=Glenn Miller - Happy in love
TTITLE4=Glenn Miller - Let's have another cup o'coffee
TTITLE5=Count Basie - Mr. Robert's roost
TTITLE6=Django Reinhardt - Nuages
TTITLE7=Louis Armstrong - On the sunny side of the street
TTITLE8=Louis Armstrong - Body and soul
TTITLE9=Charlie Parker - Laura
TTITLE10=Charlie Parker - Leap frog
TTITLE11=Nat King Cole - Destination Moon
TTITLE12=Peggy Lee - Lover come back to me
TTITLE13=Charlie Parker - I'll remember april
TTITLE14=Peggy Lee - Riders in the sky
TTITLE15=Les Brown - That old black magic
TTITLE16=Les Brown - The moon was yellow
TTITLE17=Peggy Lee - River river
TTITLE18=Nat King Cole - This can't be love
TTITLE19=Les Brown - The shinest mouth in town
EXTD=YEAR: 2005
EXTT0=
EXTT1=
EXTT2=
EXTT3=
EXTT4=
EXTT5=
EXTT6=
EXTT7=
EXTT8=
EXTT9=
EXTT10=
EXTT11=
EXTT12=
EXTT13=
EXTT14=
EXTT15=
EXTT16=
EXTT17=
EXTT18=
EXTT19=
PLAYORDER=
